<?xml version="1.0" encoding="UTF-8"?>
<svg xmlns="http://www.w3.org/2000/svg" xmlns:xlink="http://www.w3.org/1999/xlink" width="1998pt" height="1694.28pt" viewBox="0 0 1998 1694.28" version="1.1">
<defs>
<clipPath id="clip1">
  <path d="M 195 1109 L 1825 1109 L 1825 1621 L 195 1621 Z M 195 1109 "/>
</clipPath>
<clipPath id="clip2">
  <path d="M 212.34375 1112.5625 C 270.289063 1149.726563 412.242188 1149.9375 512.148438 1167.28125 C 633.386719 1188.320313 610.449219 1207.101563 503.375 1209.722656 C 484.929688 1210.175781 8.875 1233.882813 277.839844 1257.34375 C 304.570313 1259.675781 329.886719 1263.171875 356.78125 1265.175781 L 703.050781 1289.449219 C 864.132813 1300.742188 896.226563 1305.097656 708.238281 1312.292969 C 614.867188 1315.875 514.707031 1314.683594 425.160156 1322.378906 C 237.527344 1338.519531 313.257813 1359.367188 449.351563 1367.546875 C 594.308594 1376.265625 809.261719 1371.167969 948.710938 1378.683594 C 1170.859375 1390.65625 1017.988281 1413.203125 905.25 1425.355469 C 806.398438 1436.007813 685.648438 1444.476563 591.269531 1454.671875 C 420.441406 1473.113281 472.828125 1482.128906 609.191406 1492.179688 C 662.933594 1496.140625 723.101563 1499.277344 771.824219 1503.414063 C 1080.691406 1529.636719 385.566406 1565.894531 741.953125 1608.949219 C 929.515625 1631.609375 1232.171875 1617.75 1368.699219 1599.984375 C 1458.488281 1588.292969 1496.628906 1578.636719 1389.460938 1541.964844 C 1332 1522.308594 1278.78125 1503.085938 1387.699219 1492.4375 C 1413.820313 1489.886719 1441.019531 1487.695313 1467.21875 1485.976563 C 1514.148438 1482.894531 1579.308594 1485.253906 1610.5 1463.085938 C 1565.691406 1435.65625 1410.449219 1426.550781 1336.449219 1415.703125 C 1158.53125 1389.644531 1366.648438 1381.644531 1417.039063 1380.390625 C 1647.898438 1374.65625 1989.121094 1369.078125 1509.480469 1308.488281 C 1259.179688 1276.871094 1184.878906 1248.234375 1495.761719 1238.90625 C 1835.851563 1228.710938 1984.109375 1174.972656 1548.441406 1179.394531 C 1369.878906 1181.203125 1364.609375 1172.246094 1547.550781 1154.488281 C 1658.609375 1143.707031 1788.351563 1132.574219 1824.660156 1109.308594 Z M 212.34375 1112.5625 "/>
</clipPath>
<clipPath id="clip3">
  <path d="M 212.34375 1112.5625 C 270.289063 1149.726563 412.242188 1149.9375 512.148438 1167.28125 C 633.386719 1188.320313 610.449219 1207.101563 503.375 1209.722656 C 484.929688 1210.175781 8.875 1233.882813 277.839844 1257.34375 C 304.570313 1259.675781 329.886719 1263.171875 356.78125 1265.175781 L 703.050781 1289.449219 C 864.132813 1300.742188 896.226563 1305.097656 708.238281 1312.292969 C 614.867188 1315.875 514.707031 1314.683594 425.160156 1322.378906 C 237.527344 1338.519531 313.257813 1359.367188 449.351563 1367.546875 C 594.308594 1376.265625 809.261719 1371.167969 948.710938 1378.683594 C 1170.859375 1390.65625 1017.988281 1413.203125 905.25 1425.355469 C 806.398438 1436.007813 685.648438 1444.476563 591.269531 1454.671875 C 420.441406 1473.113281 472.828125 1482.128906 609.191406 1492.179688 C 662.933594 1496.140625 723.101563 1499.277344 771.824219 1503.414063 C 1080.691406 1529.636719 385.566406 1565.894531 741.953125 1608.949219 C 929.515625 1631.609375 1232.171875 1617.75 1368.699219 1599.984375 C 1458.488281 1588.292969 1496.628906 1578.636719 1389.460938 1541.964844 C 1332 1522.308594 1278.78125 1503.085938 1387.699219 1492.4375 C 1413.820313 1489.886719 1441.019531 1487.695313 1467.21875 1485.976563 C 1514.148438 1482.894531 1579.308594 1485.253906 1610.5 1463.085938 C 1565.691406 1435.65625 1410.449219 1426.550781 1336.449219 1415.703125 C 1158.53125 1389.644531 1366.648438 1381.644531 1417.039063 1380.390625 C 1647.898438 1374.65625 1989.121094 1369.078125 1509.480469 1308.488281 C 1259.179688 1276.871094 1184.878906 1248.234375 1495.761719 1238.90625 C 1835.851563 1228.710938 1984.109375 1174.972656 1548.441406 1179.394531 C 1369.878906 1181.203125 1364.609375 1172.246094 1547.550781 1154.488281 C 1658.609375 1143.707031 1788.351563 1132.574219 1824.660156 1109.308594 "/>
</clipPath>
<linearGradient id="linear0" gradientUnits="userSpaceOnUse" x1="-0.0239057" y1="0" x2="1.045733" y2="0" gradientTransform="matrix(-8.83051,519.606,-1626.28,-27.6381,1003.51,1104.985)">
<stop offset="0" style="stop-color:rgb(38.430786%,68.234253%,92.939758%);stop-opacity:1;"/>
<stop offset="0.015625" style="stop-color:rgb(38.430786%,68.234253%,92.939758%);stop-opacity:1;"/>
<stop offset="0.0234375" style="stop-color:rgb(38.391113%,68.217468%,92.938232%);stop-opacity:1;"/>
<stop offset="0.0273438" style="stop-color:rgb(38.066101%,68.084717%,92.932129%);stop-opacity:1;"/>
<stop offset="0.03125" style="stop-color:rgb(37.780762%,67.96875%,92.927551%);stop-opacity:1;"/>
<stop offset="0.0351563" style="stop-color:rgb(37.493896%,67.851257%,92.921448%);stop-opacity:1;"/>
<stop offset="0.0390625" style="stop-color:rgb(37.208557%,67.735291%,92.915344%);stop-opacity:1;"/>
<stop offset="0.0429688" style="stop-color:rgb(36.923218%,67.617798%,92.909241%);stop-opacity:1;"/>
<stop offset="0.046875" style="stop-color:rgb(36.637878%,67.501831%,92.903137%);stop-opacity:1;"/>
<stop offset="0.0507813" style="stop-color:rgb(36.351013%,67.384338%,92.897034%);stop-opacity:1;"/>
<stop offset="0.0546875" style="stop-color:rgb(36.064148%,67.268372%,92.892456%);stop-opacity:1;"/>
<stop offset="0.0585938" style="stop-color:rgb(35.777283%,67.150879%,92.886353%);stop-opacity:1;"/>
<stop offset="0.0625" style="stop-color:rgb(35.491943%,67.034912%,92.880249%);stop-opacity:1;"/>
<stop offset="0.0664063" style="stop-color:rgb(35.205078%,66.917419%,92.874146%);stop-opacity:1;"/>
<stop offset="0.0703125" style="stop-color:rgb(34.919739%,66.801453%,92.868042%);stop-opacity:1;"/>
<stop offset="0.0742188" style="stop-color:rgb(34.632874%,66.68396%,92.861938%);stop-opacity:1;"/>
<stop offset="0.078125" style="stop-color:rgb(34.346008%,66.567993%,92.857361%);stop-opacity:1;"/>
<stop offset="0.0820313" style="stop-color:rgb(34.059143%,66.4505%,92.851257%);stop-opacity:1;"/>
<stop offset="0.0859375" style="stop-color:rgb(33.773804%,66.333008%,92.845154%);stop-opacity:1;"/>
<stop offset="0.0898438" style="stop-color:rgb(33.486938%,66.215515%,92.83905%);stop-opacity:1;"/>
<stop offset="0.09375" style="stop-color:rgb(33.200073%,66.099548%,92.832947%);stop-opacity:1;"/>
<stop offset="0.0976563" style="stop-color:rgb(32.913208%,65.982056%,92.826843%);stop-opacity:1;"/>
<stop offset="0.101563" style="stop-color:rgb(32.627869%,65.866089%,92.822266%);stop-opacity:1;"/>
<stop offset="0.105469" style="stop-color:rgb(32.341003%,65.748596%,92.816162%);stop-opacity:1;"/>
<stop offset="0.109375" style="stop-color:rgb(32.054138%,65.631104%,92.810059%);stop-opacity:1;"/>
<stop offset="0.113281" style="stop-color:rgb(31.767273%,65.513611%,92.803955%);stop-opacity:1;"/>
<stop offset="0.117188" style="stop-color:rgb(31.480408%,65.397644%,92.797852%);stop-opacity:1;"/>
<stop offset="0.121094" style="stop-color:rgb(31.193542%,65.280151%,92.791748%);stop-opacity:1;"/>
<stop offset="0.125" style="stop-color:rgb(30.906677%,65.164185%,92.78717%);stop-opacity:1;"/>
<stop offset="0.128906" style="stop-color:rgb(30.619812%,65.046692%,92.781067%);stop-opacity:1;"/>
<stop offset="0.132813" style="stop-color:rgb(30.332947%,64.929199%,92.774963%);stop-opacity:1;"/>
<stop offset="0.136719" style="stop-color:rgb(30.046082%,64.811707%,92.76886%);stop-opacity:1;"/>
<stop offset="0.140625" style="stop-color:rgb(29.759216%,64.69574%,92.762756%);stop-opacity:1;"/>
<stop offset="0.144531" style="stop-color:rgb(29.472351%,64.578247%,92.756653%);stop-opacity:1;"/>
<stop offset="0.148438" style="stop-color:rgb(29.185486%,64.460754%,92.752075%);stop-opacity:1;"/>
<stop offset="0.152344" style="stop-color:rgb(28.898621%,64.343262%,92.745972%);stop-opacity:1;"/>
<stop offset="0.15625" style="stop-color:rgb(28.611755%,64.227295%,92.739868%);stop-opacity:1;"/>
<stop offset="0.160156" style="stop-color:rgb(28.32489%,64.109802%,92.733765%);stop-opacity:1;"/>
<stop offset="0.164063" style="stop-color:rgb(28.038025%,63.99231%,92.727661%);stop-opacity:1;"/>
<stop offset="0.167969" style="stop-color:rgb(27.75116%,63.874817%,92.721558%);stop-opacity:1;"/>
<stop offset="0.171875" style="stop-color:rgb(27.464294%,63.75885%,92.71698%);stop-opacity:1;"/>
<stop offset="0.175781" style="stop-color:rgb(27.177429%,63.641357%,92.710876%);stop-opacity:1;"/>
<stop offset="0.179688" style="stop-color:rgb(26.890564%,63.523865%,92.704773%);stop-opacity:1;"/>
<stop offset="0.183594" style="stop-color:rgb(26.603699%,63.406372%,92.698669%);stop-opacity:1;"/>
<stop offset="0.1875" style="stop-color:rgb(26.316833%,63.290405%,92.692566%);stop-opacity:1;"/>
<stop offset="0.191406" style="stop-color:rgb(26.029968%,63.172913%,92.686462%);stop-opacity:1;"/>
<stop offset="0.195313" style="stop-color:rgb(25.743103%,63.05542%,92.681885%);stop-opacity:1;"/>
<stop offset="0.199219" style="stop-color:rgb(25.454712%,62.937927%,92.675781%);stop-opacity:1;"/>
<stop offset="0.203125" style="stop-color:rgb(25.167847%,62.82196%,92.669678%);stop-opacity:1;"/>
<stop offset="0.207031" style="stop-color:rgb(24.880981%,62.704468%,92.663574%);stop-opacity:1;"/>
<stop offset="0.210938" style="stop-color:rgb(24.594116%,62.586975%,92.657471%);stop-opacity:1;"/>
<stop offset="0.214844" style="stop-color:rgb(24.307251%,62.469482%,92.651367%);stop-opacity:1;"/>
<stop offset="0.21875" style="stop-color:rgb(24.020386%,62.353516%,92.64679%);stop-opacity:1;"/>
<stop offset="0.222656" style="stop-color:rgb(23.733521%,62.236023%,92.640686%);stop-opacity:1;"/>
<stop offset="0.226563" style="stop-color:rgb(23.446655%,62.11853%,92.634583%);stop-opacity:1;"/>
<stop offset="0.230469" style="stop-color:rgb(23.158264%,62.001038%,92.628479%);stop-opacity:1;"/>
<stop offset="0.234375" style="stop-color:rgb(22.871399%,61.883545%,92.622375%);stop-opacity:1;"/>
<stop offset="0.238281" style="stop-color:rgb(22.584534%,61.766052%,92.616272%);stop-opacity:1;"/>
<stop offset="0.242187" style="stop-color:rgb(22.297668%,61.650085%,92.611694%);stop-opacity:1;"/>
<stop offset="0.246094" style="stop-color:rgb(22.010803%,61.532593%,92.605591%);stop-opacity:1;"/>
<stop offset="0.25" style="stop-color:rgb(21.723938%,61.4151%,92.599487%);stop-opacity:1;"/>
<stop offset="0.253906" style="stop-color:rgb(21.435547%,61.297607%,92.593384%);stop-opacity:1;"/>
<stop offset="0.257813" style="stop-color:rgb(21.148682%,61.180115%,92.58728%);stop-opacity:1;"/>
<stop offset="0.261719" style="stop-color:rgb(20.861816%,61.062622%,92.581177%);stop-opacity:1;"/>
<stop offset="0.265625" style="stop-color:rgb(20.574951%,60.946655%,92.576599%);stop-opacity:1;"/>
<stop offset="0.269531" style="stop-color:rgb(20.28656%,60.829163%,92.570496%);stop-opacity:1;"/>
<stop offset="0.273438" style="stop-color:rgb(19.999695%,60.71167%,92.564392%);stop-opacity:1;"/>
<stop offset="0.277344" style="stop-color:rgb(19.71283%,60.594177%,92.558289%);stop-opacity:1;"/>
<stop offset="0.28125" style="stop-color:rgb(19.425964%,60.47821%,92.552185%);stop-opacity:1;"/>
<stop offset="0.289063" style="stop-color:rgb(19.252014%,60.404968%,92.549133%);stop-opacity:1;"/>
<stop offset="0.296875" style="stop-color:rgb(18.968201%,60.28595%,92.54303%);stop-opacity:1;"/>
<stop offset="0.304688" style="stop-color:rgb(18.75%,60.191345%,92.538452%);stop-opacity:1;"/>
<stop offset="0.3125" style="stop-color:rgb(18.530273%,60.098267%,92.533875%);stop-opacity:1;"/>
<stop offset="0.320313" style="stop-color:rgb(18.309021%,60.003662%,92.529297%);stop-opacity:1;"/>
<stop offset="0.328125" style="stop-color:rgb(18.089294%,59.909058%,92.524719%);stop-opacity:1;"/>
<stop offset="0.335938" style="stop-color:rgb(17.868042%,59.814453%,92.520142%);stop-opacity:1;"/>
<stop offset="0.34375" style="stop-color:rgb(17.64679%,59.719849%,92.515564%);stop-opacity:1;"/>
<stop offset="0.351563" style="stop-color:rgb(17.425537%,59.625244%,92.510986%);stop-opacity:1;"/>
<stop offset="0.359375" style="stop-color:rgb(17.204285%,59.53064%,92.506409%);stop-opacity:1;"/>
<stop offset="0.367188" style="stop-color:rgb(16.983032%,59.434509%,92.501831%);stop-opacity:1;"/>
<stop offset="0.375" style="stop-color:rgb(16.76178%,59.339905%,92.497253%);stop-opacity:1;"/>
<stop offset="0.382813" style="stop-color:rgb(16.540527%,59.2453%,92.492676%);stop-opacity:1;"/>
<stop offset="0.390625" style="stop-color:rgb(16.317749%,59.14917%,92.488098%);stop-opacity:1;"/>
<stop offset="0.398438" style="stop-color:rgb(16.096497%,59.054565%,92.483521%);stop-opacity:1;"/>
<stop offset="0.40625" style="stop-color:rgb(15.873718%,58.959961%,92.478943%);stop-opacity:1;"/>
<stop offset="0.414063" style="stop-color:rgb(15.652466%,58.863831%,92.474365%);stop-opacity:1;"/>
<stop offset="0.421875" style="stop-color:rgb(15.429688%,58.769226%,92.469788%);stop-opacity:1;"/>
<stop offset="0.429688" style="stop-color:rgb(15.208435%,58.674622%,92.46521%);stop-opacity:1;"/>
<stop offset="0.4375" style="stop-color:rgb(14.985657%,58.578491%,92.460632%);stop-opacity:1;"/>
<stop offset="0.445312" style="stop-color:rgb(14.762878%,58.483887%,92.456055%);stop-opacity:1;"/>
<stop offset="0.453125" style="stop-color:rgb(14.541626%,58.387756%,92.451477%);stop-opacity:1;"/>
<stop offset="0.460937" style="stop-color:rgb(14.318848%,58.293152%,92.446899%);stop-opacity:1;"/>
<stop offset="0.46875" style="stop-color:rgb(14.096069%,58.197021%,92.442322%);stop-opacity:1;"/>
<stop offset="0.476562" style="stop-color:rgb(13.873291%,58.102417%,92.437744%);stop-opacity:1;"/>
<stop offset="0.484375" style="stop-color:rgb(13.650513%,58.006287%,92.434692%);stop-opacity:1;"/>
<stop offset="0.492187" style="stop-color:rgb(13.427734%,57.910156%,92.430115%);stop-opacity:1;"/>
<stop offset="0.5" style="stop-color:rgb(13.204956%,57.815552%,92.425537%);stop-opacity:1;"/>
<stop offset="0.507813" style="stop-color:rgb(12.982178%,57.719421%,92.420959%);stop-opacity:1;"/>
<stop offset="0.515625" style="stop-color:rgb(12.759399%,57.624817%,92.416382%);stop-opacity:1;"/>
<stop offset="0.523437" style="stop-color:rgb(12.536621%,57.528687%,92.411804%);stop-opacity:1;"/>
<stop offset="0.53125" style="stop-color:rgb(12.313843%,57.432556%,92.407227%);stop-opacity:1;"/>
<stop offset="0.539063" style="stop-color:rgb(12.091064%,57.337952%,92.402649%);stop-opacity:1;"/>
<stop offset="0.546875" style="stop-color:rgb(11.86676%,57.241821%,92.398071%);stop-opacity:1;"/>
<stop offset="0.554687" style="stop-color:rgb(11.643982%,57.145691%,92.393494%);stop-opacity:1;"/>
<stop offset="0.5625" style="stop-color:rgb(11.421204%,57.051086%,92.388916%);stop-opacity:1;"/>
<stop offset="0.570313" style="stop-color:rgb(11.198425%,56.954956%,92.384338%);stop-opacity:1;"/>
<stop offset="0.578125" style="stop-color:rgb(10.974121%,56.858826%,92.379761%);stop-opacity:1;"/>
<stop offset="0.585937" style="stop-color:rgb(10.751343%,56.764221%,92.375183%);stop-opacity:1;"/>
<stop offset="0.59375" style="stop-color:rgb(10.528564%,56.668091%,92.370605%);stop-opacity:1;"/>
<stop offset="0.601563" style="stop-color:rgb(10.30426%,56.57196%,92.366028%);stop-opacity:1;"/>
<stop offset="0.609375" style="stop-color:rgb(10.081482%,56.477356%,92.36145%);stop-opacity:1;"/>
<stop offset="0.617187" style="stop-color:rgb(9.858704%,56.381226%,92.356873%);stop-opacity:1;"/>
<stop offset="0.625" style="stop-color:rgb(9.634399%,56.285095%,92.352295%);stop-opacity:1;"/>
<stop offset="0.632813" style="stop-color:rgb(9.411621%,56.188965%,92.347717%);stop-opacity:1;"/>
<stop offset="0.640625" style="stop-color:rgb(9.187317%,56.092834%,92.34314%);stop-opacity:1;"/>
<stop offset="0.648437" style="stop-color:rgb(8.964539%,55.99823%,92.338562%);stop-opacity:1;"/>
<stop offset="0.65625" style="stop-color:rgb(8.740234%,55.9021%,92.333984%);stop-opacity:1;"/>
<stop offset="0.664063" style="stop-color:rgb(8.517456%,55.805969%,92.329407%);stop-opacity:1;"/>
<stop offset="0.671875" style="stop-color:rgb(8.293152%,55.709839%,92.324829%);stop-opacity:1;"/>
<stop offset="0.679687" style="stop-color:rgb(8.070374%,55.615234%,92.320251%);stop-opacity:1;"/>
<stop offset="0.6875" style="stop-color:rgb(7.846069%,55.519104%,92.315674%);stop-opacity:1;"/>
<stop offset="0.695312" style="stop-color:rgb(7.621765%,55.422974%,92.311096%);stop-opacity:1;"/>
<stop offset="0.703125" style="stop-color:rgb(7.398987%,55.326843%,92.306519%);stop-opacity:1;"/>
<stop offset="0.710937" style="stop-color:rgb(7.174683%,55.230713%,92.301941%);stop-opacity:1;"/>
<stop offset="0.71875" style="stop-color:rgb(6.951904%,55.134583%,92.297363%);stop-opacity:1;"/>
<stop offset="0.726562" style="stop-color:rgb(6.7276%,55.038452%,92.292786%);stop-opacity:1;"/>
<stop offset="0.734375" style="stop-color:rgb(6.503296%,54.943848%,92.288208%);stop-opacity:1;"/>
<stop offset="0.742188" style="stop-color:rgb(6.280518%,54.847717%,92.28363%);stop-opacity:1;"/>
<stop offset="0.75" style="stop-color:rgb(6.056213%,54.751587%,92.279053%);stop-opacity:1;"/>
<stop offset="0.757812" style="stop-color:rgb(5.831909%,54.655457%,92.274475%);stop-opacity:1;"/>
<stop offset="0.765625" style="stop-color:rgb(5.607605%,54.559326%,92.269897%);stop-opacity:1;"/>
<stop offset="0.773438" style="stop-color:rgb(5.384827%,54.463196%,92.26532%);stop-opacity:1;"/>
<stop offset="0.78125" style="stop-color:rgb(5.160522%,54.367065%,92.260742%);stop-opacity:1;"/>
<stop offset="0.789063" style="stop-color:rgb(4.936218%,54.270935%,92.256165%);stop-opacity:1;"/>
<stop offset="0.796875" style="stop-color:rgb(4.711914%,54.176331%,92.251587%);stop-opacity:1;"/>
<stop offset="0.804688" style="stop-color:rgb(4.489136%,54.0802%,92.247009%);stop-opacity:1;"/>
<stop offset="0.8125" style="stop-color:rgb(4.264832%,53.98407%,92.242432%);stop-opacity:1;"/>
<stop offset="0.820313" style="stop-color:rgb(4.040527%,53.887939%,92.237854%);stop-opacity:1;"/>
<stop offset="0.828125" style="stop-color:rgb(3.816223%,53.791809%,92.233276%);stop-opacity:1;"/>
<stop offset="0.835938" style="stop-color:rgb(3.591919%,53.695679%,92.228699%);stop-opacity:1;"/>
<stop offset="0.84375" style="stop-color:rgb(3.367615%,53.599548%,92.224121%);stop-opacity:1;"/>
<stop offset="0.851563" style="stop-color:rgb(3.143311%,53.503418%,92.219543%);stop-opacity:1;"/>
<stop offset="0.859375" style="stop-color:rgb(2.920532%,53.407288%,92.214966%);stop-opacity:1;"/>
<stop offset="0.867188" style="stop-color:rgb(2.696228%,53.311157%,92.210388%);stop-opacity:1;"/>
<stop offset="0.875" style="stop-color:rgb(2.471924%,53.215027%,92.205811%);stop-opacity:1;"/>
<stop offset="0.882813" style="stop-color:rgb(2.24762%,53.118896%,92.201233%);stop-opacity:1;"/>
<stop offset="0.890625" style="stop-color:rgb(2.023315%,53.022766%,92.196655%);stop-opacity:1;"/>
<stop offset="0.898438" style="stop-color:rgb(1.799011%,52.926636%,92.192078%);stop-opacity:1;"/>
<stop offset="0.90625" style="stop-color:rgb(1.574707%,52.830505%,92.1875%);stop-opacity:1;"/>
<stop offset="0.914063" style="stop-color:rgb(1.350403%,52.734375%,92.182922%);stop-opacity:1;"/>
<stop offset="0.921875" style="stop-color:rgb(1.126099%,52.638245%,92.178345%);stop-opacity:1;"/>
<stop offset="0.929688" style="stop-color:rgb(0.901794%,52.542114%,92.173767%);stop-opacity:1;"/>
<stop offset="0.9375" style="stop-color:rgb(0.67749%,52.445984%,92.169189%);stop-opacity:1;"/>
<stop offset="0.945313" style="stop-color:rgb(0.453186%,52.349854%,92.164612%);stop-opacity:1;"/>
<stop offset="0.953125" style="stop-color:rgb(0.228882%,52.253723%,92.160034%);stop-opacity:1;"/>
<stop offset="0.96875" style="stop-color:rgb(0.0579834%,52.180481%,92.156982%);stop-opacity:1;"/>
<stop offset="1" style="stop-color:rgb(0%,52.156067%,92.155457%);stop-opacity:1;"/>
</linearGradient>
<clipPath id="clip4">
  <path d="M 748 1656 L 1275 1656 L 1275 1694.28125 L 748 1694.28125 Z M 748 1656 "/>
</clipPath>
</defs>
<g id="surface1">
<g clip-path="url(#clip1)" clip-rule="nonzero">
<g clip-path="url(#clip2)" clip-rule="nonzero">
<g clip-path="url(#clip3)" clip-rule="nonzero">
<path style=" stroke:none;fill-rule:nonzero;fill:url(#linear0);" d="M 1997.992188 1109.460938 L 9.445313 1075.667969 L 0 1631.457031 L 1988.546875 1665.25 Z M 1997.992188 1109.460938 "/>
</g>
</g>
</g>
<g clip-path="url(#clip4)" clip-rule="nonzero">
<path style=" stroke:none;fill-rule:evenodd;fill:rgb(0.784302%,50.584412%,88.671875%);fill-opacity:1;" d="M 1011.691406 1656.246094 C 1156.820313 1656.246094 1274.46875 1664.757813 1274.46875 1675.261719 C 1274.46875 1685.765625 1156.820313 1694.277344 1011.691406 1694.277344 C 866.570313 1694.277344 748.921875 1685.765625 748.921875 1675.261719 C 748.921875 1664.757813 866.570313 1656.246094 1011.691406 1656.246094 "/>
</g>
<path style=" stroke:none;fill-rule:evenodd;fill:rgb(89.84375%,27.43988%,30.589294%);fill-opacity:1;" d="M 1011.691406 0 C 1387.171875 3.210938 1714.171875 221.371094 1857.539063 569.03125 C 1860 575.078125 1868.171875 594.230469 1868.140625 599.589844 C 1868.058594 614.621094 1820.539063 624.140625 1808.039063 627.46875 C 1799.078125 629.859375 1786.980469 631.558594 1779.410156 636.71875 C 1782.589844 639.378906 1792.429688 639.03125 1796.910156 639.371094 C 1816.390625 640.839844 1881.101563 639.839844 1887.929688 661.25 C 1890.96875 670.769531 1893.898438 684.339844 1896.25 694.324219 C 1897.550781 699.871094 1898.828125 705.476563 1900.070313 711.128906 C 1880.929688 719.167969 1838.488281 723.496094 1824.351563 724.984375 C 1757.648438 731.996094 1692.710938 730.117188 1626.289063 734.757813 C 1610.429688 735.863281 1571.628906 740.347656 1614.921875 744.226563 C 1671.710938 749.3125 1730.480469 746.863281 1787.71875 751.375 C 1828.171875 754.558594 1869.851563 757.679688 1910.109375 762.035156 C 1918.320313 809.113281 1923.75 857.742188 1924.410156 903.46875 C 1924.449219 906.574219 1924.46875 909.683594 1924.480469 912.789063 C 1924.480469 956.285156 1921.371094 999.046875 1915.488281 1040.921875 L 1911.960938 1040.980469 L 1911.941406 1040.980469 C 1773.671875 998.882813 1499.890625 998.605469 1415.980469 984.132813 C 1319.171875 939.1875 845.488281 949.550781 845.488281 949.550781 C 499.96875 981.835938 152.839844 1037.800781 108.480469 1045.058594 C 102.210938 1001.867188 98.90625 957.714844 98.90625 912.789063 C 99.914063 715.683594 159.464844 528.511719 277.570313 370.140625 C 293.136719 349.269531 322.316406 339.480469 346.746094 333.519531 C 373.304688 327.039063 407.273438 323.898438 434.917969 320.261719 C 468.0625 315.898438 441.113281 313.589844 427.570313 311.300781 C 413.699219 308.960938 360.863281 302.679688 353.585938 292.640625 C 346.636719 283.058594 364.199219 268.960938 370.503906 263.070313 C 374.929688 258.929688 379.480469 254.820313 384.652344 251.621094 C 411.78125 236.421875 458.476563 231.25 490.238281 227.769531 C 530.527344 223.410156 572.242188 220.289063 612.71875 217.101563 C 669.957031 212.589844 728.738281 215.039063 785.523438 209.949219 C 828.816406 206.070313 790.007813 201.589844 774.152344 200.480469 C 707.730469 195.839844 642.789063 197.71875 576.09375 190.710938 C 559 188.910156 500.519531 182.960938 491.894531 171.320313 C 486.800781 162.789063 507.1875 151.820313 513.046875 148 C 530.289063 136.761719 547.808594 126.261719 565.742188 116.171875 C 702.921875 39.210938 854.496094 0.300781 1011.691406 0 "/>
<path style=" stroke:none;fill-rule:evenodd;fill:rgb(96.484375%,49.804688%,23.535156%);fill-opacity:1;" d="M 1011.691406 244.421875 C 1271.378906 244.828125 1506.398438 393.738281 1616.890625 628.769531 C 1632.828125 662.679688 1645.738281 697.511719 1655.640625 733.074219 C 1645.878906 733.527344 1636.101563 734.070313 1626.289063 734.753906 C 1610.429688 735.863281 1571.628906 740.347656 1614.921875 744.226563 C 1629.609375 745.539063 1644.429688 746.351563 1659.328125 746.90625 C 1673.078125 800.8125 1679.980469 856.324219 1680.070313 912.789063 C 1680.070313 943.925781 1677.890625 974.542969 1673.769531 1004.546875 C 1566.46875 995.785156 1462.300781 992.121094 1415.980469 984.132813 C 1319.171875 939.1875 845.488281 949.550781 845.488281 949.550781 C 666.777344 966.25 487.652344 989.28125 350.195313 1008.636719 C 345.699219 977.328125 343.324219 945.339844 343.324219 912.789063 C 344.234375 691.78125 451.441406 485.898438 634.179688 360.949219 C 661.394531 342.339844 687.210938 340.570313 717.785156 332.160156 C 762.496094 319.871094 731.175781 304.980469 770.070313 289.449219 C 775.90625 287.109375 781.902344 284.949219 787.824219 282.828125 C 860.214844 257.109375 934.90625 244.578125 1011.691406 244.421875 "/>
<path style=" stroke:none;fill-rule:evenodd;fill:rgb(94.139099%,59.568787%,31.762695%);fill-opacity:1;" d="M 1011.691406 423.390625 C 1281.980469 423.390625 1501.089844 642.5 1501.089844 912.789063 C 1501.089844 939.816406 1498.871094 966.324219 1494.648438 992.160156 C 1461.640625 989.773438 1434.289063 987.289063 1415.980469 984.132813 C 1319.171875 939.1875 845.488281 949.550781 845.488281 949.550781 C 736.496094 959.734375 627.355469 972.273438 527.597656 984.902344 C 524.121094 961.367188 522.296875 937.292969 522.296875 912.789063 C 522.296875 642.5 741.40625 423.390625 1011.691406 423.390625 "/>
<path style=" stroke:none;fill-rule:evenodd;fill:rgb(94.53125%,66.992188%,31.762695%);fill-opacity:1;" d="M 1011.691406 554.441406 C 1209.609375 554.441406 1370.050781 714.878906 1370.050781 912.789063 C 1370.050781 932.292969 1368.460938 951.425781 1365.46875 970.082031 C 1210.980469 941.558594 845.488281 949.550781 845.488281 949.550781 C 782.347656 955.449219 719.164063 962.144531 657.773438 969.183594 C 654.867188 950.8125 653.34375 931.980469 653.34375 912.789063 C 653.34375 714.878906 813.78125 554.441406 1011.691406 554.441406 "/>
<path style=" stroke:none;fill-rule:evenodd;fill:rgb(96.09375%,78.90625%,32.542419%);fill-opacity:1;" d="M 1011.691406 650.398438 C 1156.609375 650.398438 1274.089844 767.871094 1274.089844 912.789063 C 1274.089844 928.347656 1272.730469 943.582031 1270.128906 958.394531 C 1096.21875 944.070313 845.488281 949.550781 845.488281 949.550781 C 814.699219 952.425781 783.902344 955.496094 753.308594 958.695313 C 750.679688 943.789063 749.300781 928.453125 749.300781 912.789063 C 749.300781 767.871094 866.777344 650.398438 1011.691406 650.398438 "/>
<path style=" stroke:none;fill-rule:evenodd;fill:rgb(7.446289%,24.705505%,29.80957%);fill-opacity:1;" d="M 103.699219 1045.839844 C 105.113281 1045.605469 476.234375 984.054688 845.488281 949.550781 C 845.488281 949.550781 1319.171875 939.1875 1415.980469 984.132813 C 1501.429688 998.871094 1783.839844 998.871094 1919.460938 1043.324219 C 1919.550781 1042.503906 1919.609375 1041.675781 1919.691406 1040.851563 C 1607.390625 1046.042969 509.621094 1064.316406 106.75 1071.292969 C 105.625 1062.84375 104.59375 1054.363281 103.699219 1045.839844 "/>
<path style=" stroke:none;fill-rule:evenodd;fill:rgb(7.446289%,24.705505%,29.80957%);fill-opacity:1;" d="M 1212.660156 473.480469 C 1212.660156 473.480469 1225.050781 514.121094 1233.601563 575.980469 L 1252.261719 572.230469 C 1245.839844 536.929688 1238.320313 503.601563 1229.480469 474.71875 C 1264.578125 484.851563 1296.171875 496.058594 1324.96875 511.261719 L 1333.988281 479.960938 L 1334.738281 516.628906 C 1357.28125 529.550781 1378.078125 545.238281 1397.519531 565.199219 L 1401.988281 549.679688 L 1402.421875 570.351563 C 1422.441406 591.898438 1441.019531 618.21875 1458.550781 651 C 1491.648438 394.628906 1306.339844 438.339844 1239.671875 461.851563 C 1265.890625 445.320313 1291.21875 431.191406 1317.449219 421.089844 L 1307.128906 394.078125 L 1325.140625 418.210938 C 1339.898438 412.828125 1355 408.578125 1370.730469 405.609375 L 1358.210938 369.808594 L 1383.210938 403.550781 C 1420.601563 398.230469 1461.851563 400.058594 1510.78125 410.988281 C 1345.589844 226.929688 1258.070313 373.589844 1228.308594 444.308594 C 1234.359375 403.808594 1243.300781 367.421875 1259.421875 333.320313 L 1238.699219 319.648438 L 1262.699219 326.609375 C 1274.050781 304.148438 1286.351563 285.261719 1305.539063 264.179688 L 1288.109375 252.648438 L 1309.890625 259.398438 C 1324.859375 243.261719 1342.539063 227.351563 1363.488281 211.441406 C 1114.210938 218.828125 1172.730469 383 1207.441406 450.371094 C 1172.179688 386.308594 1065.480469 237.371094 919.84375 446.078125 C 972.128906 427.480469 1016.441406 421.070313 1057.578125 423.628906 L 1063.921875 401.640625 L 1064.378906 424.140625 C 1069.75 424.601563 1075.070313 425.21875 1080.351563 425.980469 L 1091.53125 387.160156 L 1092.371094 427.980469 C 1127.53125 434.558594 1161.300781 447.449219 1196.988281 464.398438 C 1129.269531 453.710938 933.472656 442.488281 1015.230469 691.011719 C 1027.660156 651.109375 1042.910156 618.980469 1061.101563 592.148438 L 1044.75 560.828125 L 1067.230469 583.449219 C 1089.359375 553.269531 1115.570313 530.011719 1146.089844 509.691406 L 1136.078125 493.191406 L 1156.808594 502.78125 C 1174.078125 491.980469 1192.640625 481.929688 1212.539063 471.960938 L 1213.828125 472.609375 Z M 1234.660156 583.910156 C 1237.898438 609.039063 1240.429688 637.359375 1241.25 667.671875 L 1266.011719 662.691406 C 1262.46875 634.839844 1258.390625 606.949219 1253.660156 580.089844 Z M 1241.429688 675.78125 C 1241.980469 708.902344 1240.441406 744.226563 1235.550781 780.25 L 1277.46875 771.808594 C 1274.71875 739.675781 1271.289063 705.265625 1267.011719 670.628906 Z M 1234.351563 788.636719 C 1225.46875 847.757813 1207.339844 908.4375 1174.410156 964.078125 L 1290.820313 960.855469 C 1290.820313 960.855469 1285.828125 872.378906 1278.148438 779.820313 "/>
<path style=" stroke:none;fill-rule:evenodd;fill:rgb(7.446289%,24.705505%,29.80957%);fill-opacity:1;" d="M 719.617188 598.070313 C 719.617188 598.070313 705.96875 625.839844 692.605469 669.320313 L 679.628906 664.441406 C 688.359375 639.820313 697.660156 616.730469 707.378906 597 C 680.96875 600.191406 656.953125 604.558594 634.476563 612.128906 L 631.648438 588.570313 L 626.824219 614.851563 C 609.117188 621.5 592.328125 630.359375 576.023438 642.429688 L 574.625 630.75 L 571.90625 645.558594 C 554.996094 658.71875 538.574219 675.46875 522.140625 696.988281 C 528.269531 508.828125 656.378906 561.878906 701.558594 586.570313 C 684.636719 571.621094 668.078125 558.511719 650.40625 548.191406 L 660.976563 529.980469 L 645.214844 545.21875 C 635.230469 539.628906 624.871094 534.808594 613.90625 530.839844 L 627.089844 506.570313 L 605.183594 527.898438 C 578.921875 519.71875 549.054688 516.21875 512.605469 518.359375 C 652.839844 405.328125 698.632813 520.96875 711.769531 575.28125 C 712.152344 545.46875 709.96875 518.261719 702.363281 491.871094 L 718.847656 484.460938 L 700.785156 486.660156 C 695.246094 469.191406 688.613281 454.179688 677.273438 436.789063 L 691.152344 430.53125 L 674.710938 432.839844 C 665.832031 419.488281 654.984375 405.988281 641.78125 392.109375 C 820.105469 426.519531 758.882813 537.699219 726.066406 582.070313 C 758.886719 540.140625 852.972656 445.53125 933.304688 612.558594 C 897.890625 593.078125 866.785156 583.308594 836.914063 580.339844 L 834.925781 563.800781 L 831.96875 579.910156 C 828.054688 579.621094 824.15625 579.441406 820.273438 579.378906 L 816.765625 550.160156 L 811.394531 579.410156 C 785.351563 580.039063 759.578125 585.359375 731.941406 593.378906 C 781.871094 593.601563 923.925781 608.378906 836.148438 777.488281 C 831.871094 747.355469 824.664063 722.480469 814.71875 701.066406 L 830.121094 680.460938 L 811.328125 694.101563 C 798.941406 669.820313 782.808594 650.050781 763.246094 631.878906 L 772.367188 621.179688 L 756.34375 625.648438 C 745.195313 615.878906 733.023438 606.488281 719.882813 597 L 718.878906 597.308594 Z M 690.914063 674.890625 C 685.65625 692.578125 680.53125 712.640625 676.398438 734.332031 L 659.183594 727.859375 C 664.980469 708.257813 671.171875 688.691406 677.699219 669.929688 Z M 675.328125 740.140625 C 671.0625 763.886719 668.046875 789.460938 667.363281 815.925781 L 638.210938 804.964844 C 643.9375 782.1875 650.421875 757.851563 657.539063 733.453125 Z M 667.246094 822.09375 C 666.726563 865.628906 674.960938 935.707031 692.136719 979.550781 L 605.363281 976.316406 C 605.363281 976.316406 620.464844 876.28125 636.789063 810.644531 "/>
<path style=" stroke:none;fill-rule:evenodd;fill:rgb(7.446289%,24.705505%,29.80957%);fill-opacity:1;" d="M 675.328125 740.140625 C 675.328125 740.140625 774.320313 827.613281 934.050781 827.078125 C 1020.96875 826.785156 1125.878906 800.429688 1242.601563 719.734375 C 1146.621094 869.800781 1030.488281 927.933594 927.976563 928.703125 C 803.667969 929.640625 699.378906 846.230469 675.328125 740.140625 "/>
</g>
</svg>
